<svg aria-hidden="true" style="position: absolute; width: 0; height: 0; overflow: hidden;" version="1.1" xmlns="http://www.w3.org/2000/svg" xmlns:xlink="http://www.w3.org/1999/xlink">
<defs>
<symbol id="icon-arrow-right3" viewBox="0 0 32 32">
<path fill="#d41443" style="fill: var(--color1, #d41443)" d="M31.489 14.757l-11.556-11.557c-0.33-0.33-0.77-0.511-1.238-0.511s-0.909 0.181-1.239 0.511l-1.049 1.050c-0.33 0.329-0.511 0.769-0.511 1.238s0.182 0.924 0.511 1.253l6.742 6.757h-21.419c-0.966 0-1.729 0.756-1.729 1.722v1.484c0 0.966 0.763 1.798 1.729 1.798h21.495l-6.818 6.794c-0.33 0.33-0.511 0.758-0.511 1.227s0.182 0.903 0.511 1.232l1.049 1.046c0.33 0.33 0.769 0.51 1.239 0.51s0.908-0.182 1.238-0.512l11.556-11.556c0.331-0.331 0.513-0.773 0.511-1.242 0.001-0.471-0.181-0.913-0.511-1.244z"></path>
</symbol>
<symbol id="icon-Burger" viewBox="0 0 32 32">
<path fill="none" stroke="#d41443" style="stroke: var(--color1, #d41443)" stroke-linejoin="miter" stroke-linecap="butt" stroke-miterlimit="4" stroke-width="1.6" d="M0 6.4h32.019M0 16.006h32.019M0 25.611h32.019"></path>
</symbol>
<symbol id="icon-close" viewBox="0 0 32 32">
<path fill="none" stroke="#fff" style="stroke: var(--color2, #fff)" stroke-linejoin="miter" stroke-linecap="butt" stroke-miterlimit="4" stroke-width="2" d="M2.521 2.001l26.968 28.008M2.001 29.489l28.008-26.968"></path>
</symbol>
<symbol id="icon-facebook" viewBox="0 0 32 32">
<path fill="#fea5bb" style="fill: var(--color3, #fea5bb)" d="M16.003 32.007c8.838 0 16.003-7.165 16.003-16.003s-7.165-16.003-16.003-16.003-16.003 7.165-16.003 16.003 7.165 16.003 16.003 16.003z"></path>
<path fill="#fff" style="fill: var(--color2, #fff)" d="M20.45 15.984h-2.611v9.621h-3.956v-9.621h-1.881v-3.38h1.881v-2.188c0-1.565 0.739-4.015 3.991-4.015l2.93 0.012v3.282h-2.126c-0.348 0-0.839 0.176-0.839 0.923v1.989h2.956l-0.345 3.378z"></path>
</symbol>
<symbol id="icon-facebook-mobile" viewBox="0 0 32 32">
<path fill="#fea5bb" style="fill: var(--color3, #fea5bb)" d="M15.972 31.521c8.57 0 15.516-6.946 15.516-15.516s-6.946-15.516-15.516-15.516c-8.569 0-15.516 6.946-15.516 15.516s6.947 15.516 15.516 15.516z"></path>
<path fill="#fff" style="fill: var(--color2, #fff)" d="M20.284 15.986h-2.531v9.328h-3.835v-9.329h-1.823v-3.278h1.823v-2.121c0-1.518 0.718-3.893 3.869-3.893l2.841 0.012v3.182h-2.062c-0.337 0-0.814 0.171-0.814 0.894v1.93h2.867l-0.336 3.274z"></path>
</symbol>
<symbol id="icon-github" viewBox="0 0 32 32">
<path fill="#fea5bb" style="fill: var(--color3, #fea5bb)" d="M32.007 16.003c0 8.838-7.165 16.003-16.003 16.003s-16.003-7.165-16.003-16.003c0-8.838 7.165-16.003 16.003-16.003s16.003 7.165 16.003 16.003z"></path>
<path fill="#fff" style="fill: var(--color2, #fff)" d="M16.003 6.59c-5.171 0-9.414 4.243-9.414 9.414 0 4.412 3.096 8.421 7.207 9.414v-3.114c-0.408 0.088-0.781 0.091-1.196-0.031-0.556-0.164-1.008-0.535-1.344-1.1-0.214-0.361-0.593-0.753-0.988-0.724l-0.097-1.099c0.856-0.073 1.595 0.522 2.033 1.259 0.196 0.329 0.421 0.521 0.709 0.605 0.278 0.083 0.577 0.043 0.925-0.080 0.088-0.698 0.408-0.958 0.65-1.327-2.452-0.365-3.429-1.666-3.817-2.692-0.514-1.364-0.238-3.067 0.67-4.144 0.018-0.021 0.050-0.075 0.038-0.113-0.417-1.26 0.090-2.301 0.109-2.411 0.481 0.141 0.559-0.143 2.090 0.786l0.264 0.159c0.111 0.066 0.075 0.028 0.186 0.019 0.59-0.166 1.269-0.266 1.97-0.276l0.006-0c0.668 0.008 1.337 0.104 2.002 0.284l0.086 0.009c-0.008-0.002 0.024-0.006 0.075-0.037 1.911-1.158 1.842-0.779 2.355-0.946 0.019 0.111 0.519 1.169 0.106 2.412-0.056 0.171 1.657 1.74 0.708 4.257-0.388 1.026-1.365 2.328-3.816 2.693 0.314 0.48 0.692 0.734 0.69 1.723v3.887c4.11-0.993 7.207-5.002 7.207-9.414 0-5.171-4.243-9.414-9.414-9.414z"></path>
</symbol>
<symbol id="icon-github-mobile" viewBox="0 0 32 32">
<path fill="#fea5bb" style="fill: var(--color3, #fea5bb)" d="M32.009 16.005c0 8.839-7.166 16.005-16.005 16.005s-16.005-7.166-16.005-16.005c0-8.839 7.166-16.005 16.005-16.005s16.005 7.166 16.005 16.005z"></path>
<path fill="#fff" style="fill: var(--color2, #fff)" d="M16.005 6.59c-5.171 0-9.415 4.244-9.415 9.415 0 4.413 3.097 8.421 7.208 9.415v-3.115c-0.407 0.090-0.782 0.092-1.197-0.030-0.556-0.165-1.008-0.535-1.343-1.1-0.214-0.36-0.593-0.752-0.988-0.723l-0.097-1.099c0.855-0.073 1.594 0.521 2.034 1.259 0.195 0.328 0.42 0.52 0.708 0.605 0.278 0.082 0.577 0.043 0.926-0.080 0.087-0.698 0.407-0.96 0.648-1.327-2.452-0.366-3.429-1.666-3.817-2.694-0.514-1.363-0.238-3.067 0.67-4.143 0.018-0.020 0.050-0.076 0.038-0.114-0.417-1.259 0.090-2.301 0.11-2.411 0.48 0.142 0.558-0.143 2.089 0.786l0.264 0.159c0.11 0.066 0.076 0.028 0.187 0.020 0.59-0.167 1.269-0.267 1.969-0.278l0.006-0c0.717 0.011 1.405 0.114 2.059 0.299l-0.056-0.014 0.086 0.009c-0.008-0.002 0.023-0.006 0.075-0.037 1.911-1.157 1.843-0.779 2.355-0.945 0.019 0.11 0.52 1.168 0.108 2.411-0.056 0.172 1.656 1.74 0.707 4.258-0.388 1.027-1.365 2.328-3.817 2.694 0.314 0.48 0.692 0.734 0.69 1.723v3.888c4.111-0.993 7.208-5.001 7.208-9.415 0-5.171-4.243-9.415-9.415-9.415z"></path>
</symbol>
<symbol id="icon-home1" viewBox="0 0 32 32">
<path fill="#d31342" style="fill: var(--color4, #d31342)" d="M31.624 15.654c0.237-0.258 0.382-0.603 0.382-0.983 0-0.439-0.194-0.832-0.501-1.099l-0.002-0.002-13.639-11.933c-0.293-0.248-0.676-0.399-1.094-0.399-0.431 0-0.825 0.161-1.124 0.425l0.002-0.002-13.684 12.546c-0.292 0.266-0.474 0.647-0.474 1.071 0 0.391 0.155 0.747 0.408 1.007l-0-0 0.345 0.357c0.566 0.591 1.487 0.665 2.053 0.158l1.022-0.916v13.408c0 0.825 0.665 1.489 1.489 1.489h5.33c0.822 0 1.489-0.665 1.489-1.489v-9.38h6.807v9.38c-0.012 0.822 0.576 1.489 1.398 1.489h5.653c0.822 0 1.487-0.665 1.487-1.489v-13.221l0.633 0.556c0.347 0.305 1.078 0.059 1.63-0.549l0.389-0.426z"></path>
</symbol>
<symbol id="icon-telegram" viewBox="0 0 32 32">
<path fill="#fea5bb" style="fill: var(--color3, #fea5bb)" d="M32.007 16.003c0 8.838-7.165 16.003-16.003 16.003s-16.003-7.165-16.003-16.003c0-8.838 7.165-16.003 16.003-16.003s16.003 7.165 16.003 16.003z"></path>
<path fill="#fff" style="fill: var(--color2, #fff)" d="M12.869 18.379l-0.317 4.17c0.455 0 0.651-0.183 0.888-0.401l2.13-1.902 4.415 3.019c0.81 0.421 1.381 0.199 1.6-0.696l2.898-12.676c0.258-1.117-0.433-1.554-1.221-1.28l-17.036 6.087c-1.163 0.422-1.146 1.026-0.198 1.301l4.356 1.264 10.116-5.908c0.476-0.295 0.909-0.132 0.554 0.163l-8.183 6.858z"></path>
</symbol>
<symbol id="icon-telegram-mobile" viewBox="0 0 32 32">
<path fill="#fea5bb" style="fill: var(--color3, #fea5bb)" d="M31.26 16.005c0 8.569-6.947 15.516-15.516 15.516s-15.516-6.947-15.516-15.516c0-8.569 6.947-15.516 15.516-15.516s15.516 6.947 15.516 15.516z"></path>
<path fill="#fff" style="fill: var(--color2, #fff)" d="M12.706 18.308l-0.307 4.044c0.44 0 0.631-0.177 0.86-0.389l2.066-1.843 4.281 2.926c0.785 0.407 1.338 0.193 1.551-0.674l2.809-12.29h0.001c0.249-1.084-0.42-1.507-1.185-1.241l-16.517 5.902c-1.127 0.407-1.11 0.995-0.192 1.261l4.223 1.226 9.808-5.728c0.462-0.285 0.883-0.127 0.536 0.158l-7.934 6.649z"></path>
</symbol>
<symbol id="icon-Vector1" viewBox="0 0 32 32">
<path fill="none" stroke="#d41443" style="stroke: var(--color1, #d41443)" stroke-linejoin="round" stroke-linecap="round" stroke-miterlimit="4" stroke-width="6.4" d="M8.366 3.204l14.186 12.815-14.186 12.815"></path>
</symbol>
</defs>
</svg>
